<svg width="430" height="136" viewBox="0 0 430 136" fill="none" xmlns="http://www.w3.org/2000/svg">
<g clip-path="url(#clip0_1378_644)">
<path d="M53.3078 77.5769C53.3078 98.9952 34.3945 101.016 17.273 97.7828C9.70763 95.9643 11.8976 87.8819 12.2958 82.2243C12.4949 81.0119 13.2912 78.1831 17.273 79.1934C21.852 80.2037 26.2319 81.6181 31.01 81.6181C32.8018 81.6181 35.1908 80.6078 33.7972 78.3852C32.6027 76.5666 28.6209 75.7584 26.8291 74.9502C18.2684 71.3131 9.70763 66.0595 8.31402 55.9566C6.92041 46.6619 10.1058 36.559 19.0647 32.5178C24.6392 30.0931 31.01 30.0931 36.9826 30.4972C39.3717 30.6993 46.937 30.4972 48.7288 32.3157C54.3032 33.7301 50.3215 44.4392 50.3215 48.0763C49.7242 53.5319 40.5662 50.2989 37.7789 49.8948C35.589 49.4907 32.0054 48.4805 29.6164 49.4907C26.2319 50.9052 29.8155 53.734 31.4082 54.3402C42.5571 57.9772 53.3078 64.039 53.3078 77.5769Z" fill="white"/>
<path d="M85.56 19.1821C85.56 33.5283 61.0723 33.5283 61.0723 19.1821C61.0723 4.43181 85.56 4.43181 85.56 19.1821Z" fill="white"/>
<path d="M84.5644 40.3975V97.5801H68.2392C63.063 97.5801 62.2666 93.539 62.2666 91.7204V32.113H77.3972C79.5872 32.5172 84.5644 33.5275 84.5644 40.3975Z" fill="white"/>
<path d="M135.531 40.8031C135.531 43.6319 135.132 46.6628 135.132 49.4916H123.784V76.9717C123.784 81.8211 131.947 79.5984 134.933 79.3963C134.734 87.2766 135.531 97.3796 125.377 98.5919C111.839 100.41 101.088 96.7734 101.088 81.4169V49.4916C98.5003 49.6937 95.1158 49.4916 94.5186 46.2587V32.5187H102.084L103.278 19.7889C108.853 19.7889 123.784 17.3643 123.784 26.4569V32.5187H128.961C131.748 32.7208 135.929 34.1351 135.531 40.8031C135.929 34.1351 135.531 40.8031 135.531 40.8031Z" fill="white"/>
<path d="M197.248 56.3623C197.248 43.2284 191.475 32.7214 177.937 30.4987C164.598 28.4781 150.463 32.5193 145.286 46.2593C140.309 59.3931 140.707 78.3867 149.865 89.702C160.417 102.836 180.127 100.007 194.262 95.5617C193.665 89.702 194.461 80.2052 186.497 80.2052C177.738 80.2052 165.394 85.0546 165.394 71.3146H196.253C196.651 65.657 197.248 59.9993 197.248 56.3623ZM176.742 59.5952H164.996C164.996 56.3623 164.996 51.1087 168.779 50.0984C173.557 48.684 176.742 51.7149 176.742 56.3623V59.5952Z" fill="white"/>
<path d="M303.163 19.1821C303.163 33.5283 278.675 33.5283 278.675 19.1821C278.675 4.43181 303.163 4.43181 303.163 19.1821Z" fill="white"/>
<path d="M302.167 36.5584V97.5802H289.425C281.462 97.5802 280.068 91.5184 279.869 88.4876V32.3152H297.787C299.977 32.3152 301.968 34.3358 302.167 36.5584Z" fill="white"/>
<path d="M367.667 46.8634V97.7822C359.305 97.7822 345.369 99.8028 344.573 87.6793C344.573 80.6072 344.573 73.5352 344.573 66.261C344.573 60.4013 346.165 44.8428 335.215 53.1272V97.5802H312.32V31.5069C317.298 31.5069 331.632 28.8801 334.021 35.144L334.419 36.3563C341.586 32.5172 347.36 28.6781 356.12 30.2946C364.68 31.709 367.667 38.9831 367.667 46.8634Z" fill="white"/>
<path d="M266.53 46.056C255.979 29.2851 233.283 24.4357 217.555 36.9634C205.809 46.4602 204.415 60.8064 204.415 74.9505C204.415 93.3379 204.415 111.523 204.415 129.91L224.324 115.968C224.324 99.8037 222.731 82.8308 224.523 66.8681C225.319 60.4023 228.106 52.5219 234.676 50.0972C242.64 47.0663 250.603 53.7343 251.997 61.6146C253.789 72.1217 244.432 76.769 238.857 83.639C232.885 90.9131 231.69 100.814 233.084 109.907C243.834 102.228 256.576 96.5708 264.938 85.8617C273.697 74.1423 274.096 58.3816 266.53 46.056C272.702 55.9569 259.96 35.751 266.53 46.056ZM267.725 78.1834C267.924 77.7793 268.521 76.3649 267.725 78.1834C267.725 78.1834 267.924 77.9813 267.725 78.1834Z" fill="url(#paint0_linear_1378_644)"/>
<path d="M421.619 77.5769C421.619 98.9952 402.706 101.016 385.584 97.7828C378.019 95.9643 380.209 87.8819 380.607 82.2243C380.806 81.0119 381.603 78.1831 385.584 79.1934C390.163 80.2037 394.543 81.6181 399.322 81.6181C401.113 81.6181 403.502 80.6078 402.109 78.3852C400.914 76.5666 396.932 75.7584 395.141 74.9502C386.58 71.3131 378.019 66.0595 376.626 55.9566C375.232 46.6619 378.417 36.559 387.376 32.5178C392.951 30.0931 399.322 30.0931 405.294 30.4972C407.683 30.6993 415.248 30.4972 417.04 32.3157C422.615 33.7301 418.633 44.4392 418.633 48.0763C418.036 53.5319 408.878 50.2989 406.09 49.8948C403.901 49.4907 400.317 48.4805 397.928 49.4907C394.543 50.9052 398.127 53.734 399.72 54.3402C411.068 57.9772 421.619 64.039 421.619 77.5769Z" fill="white"/>
</g>
<defs>
<linearGradient id="paint0_linear_1378_644" x1="275.636" y1="43.616" x2="183.231" y2="116.214" gradientUnits="userSpaceOnUse">
<stop stop-color="#5D5FE5"/>
<stop offset="1" stop-color="#5ECFF9"/>
</linearGradient>
<clipPath id="clip0_1378_644">
<rect width="430" height="136" rx="4" fill="white"/>
</clipPath>
</defs>
</svg>
