<svg width="430" height="136" viewBox="0 0 430 136" fill="none" xmlns="http://www.w3.org/2000/svg">
<g clip-path="url(#clip0_1381_661)">
<path d="M53.4134 76.4361C53.4134 97.5394 34.456 99.5302 17.2946 96.3448C9.71161 94.553 11.9067 86.5895 12.3058 81.0151C12.5053 79.8205 13.3035 77.0333 17.2946 78.0288C21.8843 79.0242 26.2744 80.4178 31.0636 80.4178C32.8596 80.4178 35.2542 79.4224 33.8573 77.2324C32.66 75.4406 28.669 74.6443 26.873 73.848C18.2923 70.2644 9.71161 65.0881 8.31475 55.1337C6.91789 45.9757 10.1107 36.0213 19.0905 32.0396C24.678 29.6505 31.0636 29.6505 37.0502 30.0487C39.4448 30.2478 47.0277 30.0487 48.8237 31.8405C54.4111 33.2341 50.4201 43.7857 50.4201 47.3693C49.8215 52.7447 40.6421 49.5592 37.8484 49.1611C35.6533 48.7629 32.0614 47.7675 29.6668 48.7629C26.2744 50.1565 29.8663 52.9438 31.4627 53.541C42.6376 57.1246 53.4134 63.0972 53.4134 76.4361Z" fill="#003135"/>
<path d="M85.7411 18.9C85.7411 33.0353 61.1963 33.0353 61.1963 18.9C61.1963 4.36665 85.7411 4.36665 85.7411 18.9Z" fill="#003135"/>
<path d="M84.7433 39.8035V96.1452H68.3801C63.1918 96.1452 62.3936 92.1635 62.3936 90.3717V31.6409H77.5594C79.7545 32.039 84.7433 33.0345 84.7433 39.8035Z" fill="#003135"/>
<path d="M135.828 40.2031C135.828 42.9903 135.429 45.9767 135.429 48.7639H124.055V75.8398C124.055 80.6179 132.236 78.4279 135.23 78.2288C135.03 85.9932 135.828 95.9476 125.651 97.1421C112.082 98.9339 101.306 95.3503 101.306 80.2197V48.7639C98.7118 48.963 95.3194 48.7639 94.7207 45.5785V32.0406H102.304L103.501 19.498C109.088 19.498 124.055 17.109 124.055 26.0679V32.0406H129.243C132.037 32.2396 136.227 33.6332 135.828 40.2031C136.227 33.6332 135.828 40.2031 135.828 40.2031Z" fill="#003135"/>
<path d="M197.689 55.5333C197.689 42.5926 191.902 32.2401 178.333 30.0501C164.963 28.0593 150.795 32.041 145.606 45.5789C140.617 58.5196 141.017 77.2339 150.196 88.3828C160.772 101.323 180.528 98.5362 194.696 94.1563C194.097 88.3827 194.895 79.0256 186.913 79.0256C178.133 79.0256 165.761 83.8037 165.761 70.2658H196.691C197.091 64.6913 197.689 59.1169 197.689 55.5333ZM177.135 58.7187H165.362C165.362 55.5333 165.362 50.357 169.153 49.3616C173.943 47.968 177.135 50.9543 177.135 55.5333V58.7187Z" fill="#003135"/>
<path d="M303.851 18.9C303.851 33.0353 279.306 33.0353 279.306 18.9C279.306 4.36665 303.851 4.36665 303.851 18.9Z" fill="#003135"/>
<path d="M302.853 36.0209V96.1453H290.081C282.099 96.1453 280.702 90.1727 280.503 87.1864V31.8401H298.463C300.658 31.8401 302.653 33.831 302.853 36.0209Z" fill="#003135"/>
<path d="M368.505 46.1742V96.3443C360.124 96.3443 346.155 98.3351 345.357 86.3899C345.357 79.4218 345.357 72.4537 345.357 65.2866C345.357 59.5131 346.953 44.1833 335.978 52.3459V96.1452H313.029V31.0436C318.018 31.0436 332.386 28.4554 334.78 34.6271L335.18 35.8217C342.363 32.039 348.15 28.2563 356.931 29.849C365.511 31.2427 368.505 38.4098 368.505 46.1742Z" fill="#003135"/>
<path d="M267.133 45.3787C256.557 28.8544 233.808 24.0763 218.043 36.4197C206.27 45.7768 204.873 59.9121 204.873 73.8482C204.873 91.9652 204.873 109.883 204.873 128L224.828 114.263C224.828 98.3359 223.232 81.6126 225.028 65.8847C225.826 59.5139 228.62 51.7495 235.205 49.3604C243.187 46.3741 251.169 52.944 252.566 60.7084C254.362 71.061 244.983 75.64 239.395 82.4089C233.409 89.5761 232.212 99.3314 233.608 108.29C244.384 100.725 257.156 95.1506 265.537 84.5989C274.317 73.0518 274.716 57.523 267.133 45.3787C273.319 55.1339 260.548 35.2252 267.133 45.3787ZM268.33 77.0336C268.53 76.6354 269.129 75.2418 268.33 77.0336C268.33 77.0336 268.53 76.8345 268.33 77.0336Z" fill="url(#paint0_linear_1381_661)"/>
<path d="M422.583 76.4361C422.583 97.5394 403.626 99.5302 386.464 96.3448C378.882 94.553 381.077 86.5895 381.476 81.0151C381.675 79.8205 382.473 77.0333 386.464 78.0288C391.054 79.0242 395.444 80.4178 400.234 80.4178C402.03 80.4178 404.424 79.4224 403.027 77.2324C401.83 75.4406 397.839 74.6443 396.043 73.848C387.462 70.2644 378.882 65.0881 377.485 55.1337C376.088 45.9757 379.281 36.0213 388.26 32.0396C393.848 29.6505 400.234 29.6505 406.22 30.0487C408.615 30.2478 416.198 30.0487 417.994 31.8405C423.581 33.2341 419.59 43.7857 419.59 47.3693C418.991 52.7447 409.812 49.5592 407.018 49.1611C404.823 48.7629 401.231 47.7675 398.837 48.7629C395.444 50.1565 399.036 52.9438 400.633 53.541C412.007 57.1246 422.583 63.0972 422.583 76.4361Z" fill="#003135"/>
</g>
<defs>
<linearGradient id="paint0_linear_1381_661" x1="276.26" y1="42.9745" x2="184.856" y2="116.027" gradientUnits="userSpaceOnUse">
<stop stop-color="#5D5FE5"/>
<stop offset="1" stop-color="#5ECFF9"/>
</linearGradient>
<clipPath id="clip0_1381_661">
<rect width="430" height="136" rx="4" fill="white"/>
</clipPath>
</defs>
</svg>
